<svg version="1" viewBox="0 0 1920 1080" xmlns="http://www.w3.org/2000/svg"><path d="M806 520l-128-74c-10-7-9-17 3-25l122-70c12-7 31-8 42-2l127 74c11 6 10 17-3 24l-121 71c-13 7-31 8-42 2" fill="#b8d8ed"/><path d="M1019 284v-32H849h1c-14-8-37-7-53 2l5-2H632v34c0 6 3 11 9 14l160 93c13 8 37 7 52-2l153-89c9-5 13-11 13-18" fill="#263c7a"/><path d="M825 247c-9 0-20 3-28 7l5-2H632v34c0 6 3 11 9 14l160 93c6 4 15 6 24 5V247" fill="#4067b1"/><path d="M651 252h-19v34c0 6 3 11 9 14l10 6v-54" fill="#b8d8ed"/><path d="M804 395c12 5 29 5 42-1v-44h-42v45" fill="#2e4b8d"/><path d="M801 359l-160-92c-13-8-12-22 4-31l152-89c16-9 39-10 53-2l160 93c13 8 11 22-4 31l-153 88c-15 9-39 10-52 2" fill="#d9effb"/><g fill="#fff"><path d="M832 235l-47-28c-6-3-6-9 0-13 6-3 16-3 23 0l47 28c6 3 6 9 0 13-7 3-17 3-23 0M900 275l-28-17c-7-4-7-10 0-13 6-4 16-4 22 0l29 16c6 4 6 10 0 14-6 3-17 3-23 0M766 251l-28-16c-7-4-7-10 0-13 6-4 16-4 22 0l29 16c6 4 6 10 0 13-7 4-17 4-23 0"/></g><path d="M1074 689l-132-77c-11-7-10-18 3-25l126-74c13-7 33-8 44-2l132 77c12 7 10 18-3 26l-126 73c-13 8-32 8-44 2" fill="#b8d8ed"/><path d="M1288 450v-32h-170 1c-13-8-37-7-52 2l5-2H901v34c0 5 3 10 10 14l159 93c14 8 37 7 53-2l152-89c9-5 13-12 13-18" fill="#623da1"/><path d="M1095 413c-10 0-20 2-28 7l5-2H901v34c0 5 3 10 10 14l159 93c7 4 16 5 25 5V413" fill="#7844a6"/><path d="M921 418h-20v34c0 5 3 10 9 14l11 6v-54" fill="#8e54b0"/><path d="M1074 561c11 5 28 4 42-1v-45h-42v46" fill="#683fa2"/><path d="M1070 525l-160-93c-13-8-11-21 4-30l152-89c16-9 40-10 53-2l160 93c13 8 12 21-4 30l-152 89c-16 9-39 10-53 2" fill="#6f41a4"/><g fill="#8e54b0"><path d="M1100 405l-47-27c-6-4-6-10 0-13 6-4 16-4 23 0l47 27c6 4 6 10 0 13-7 4-17 4-23 0M1168 445l-28-17c-7-3-7-9 0-13 6-3 16-3 22 0l29 17c6 4 6 10 0 13-6 4-16 4-23 0M1034 422l-28-17c-7-3-7-9 0-13 6-4 16-4 22 0l29 17c6 4 6 9 0 13s-17 4-23 0"/></g><g aria-label="REFLECT"><path d="M493 800q22 0 36 9t14 27q0 26-27 36 14 7 20 23 6 15 10 42h-11q-8-61-38-61h-26v61h-11V803q16-3 33-3zm3 66q16 0 26-7 9-7 9-21 0-29-38-29-16 0-22 2v55zM689 937h-74V802h74v9h-63v50h56v10h-56v57h63zM834 872h-61v65h-11V802h77v9h-66v52h61zM987 937h-78V802h11v126h67zM1130 937h-73V802h73v9h-62v50h56v10h-56v57h62zM1293 923l3 10q-15 7-37 7-28 0-46-20-18-21-18-51 0-29 18-49t46-20q22 0 37 7l-3 10q-18-8-33-8-23 0-39 18t-15 43 15 43 39 18q15 0 33-8zM1460 811h-49v126h-12V811h-50v-9h111z"/></g></svg>